<?xml version="1.0" encoding="utf-8"?>
<!-- Generator: Adobe Illustrator 25.4.1, SVG Export Plug-In . SVG Version: 6.00 Build 0)  -->
<svg version="1.1" id="Layer_1" xmlns="http://www.w3.org/2000/svg" xmlns:xlink="http://www.w3.org/1999/xlink" x="0px" y="0px"
	 viewBox="0 0 466.9 108" style="enable-background:new 0 0 466.9 108;" xml:space="preserve">
<style type="text/css">
	.st0{fill:#FFFFFF;}
	.st1{fill:#333333;}
</style>
<g>
	<rect class="st0" width="158" height="108"/>
	<rect x="158" class="st1" width="308.9" height="108"/>
	<g>
		<path d="M40.4,18c4.4,0,8.2,0.7,11.4,2.1c3.1,1.4,5.5,3.5,7.2,6.2c1.6,2.7,2.5,6,2.5,9.8s-0.8,7.1-2.5,9.8c-1.6,2.7-4,4.7-7.2,6.2
			c-3.1,1.4-6.9,2.1-11.4,2.1H29.6v18.1H15.4V18H40.4z M38.2,43.7c3,0,5.2-0.6,6.7-1.9c1.5-1.2,2.3-3.1,2.3-5.6s-0.8-4.4-2.3-5.6
			s-3.7-1.9-6.7-1.9h-8.6v15H38.2z"/>
		<path d="M69.5,72.4V31.2h12.4l0.6,8.9c1-3.1,2.6-5.5,4.7-7.2s4.7-2.6,7.9-2.6c1,0,1.9,0.1,2.7,0.2c0.7,0.2,1.3,0.4,1.8,0.7
			l-1.4,11.5c-0.5-0.2-1.2-0.4-2.1-0.5S94.2,42,93,42c-1.6,0-3.2,0.4-4.6,1.1c-1.4,0.7-2.6,1.8-3.4,3.2c-0.9,1.4-1.3,3.2-1.3,5.3
			v20.7L69.5,72.4L69.5,72.4z"/>
		<path d="M124,30.4c4.3,0,8.1,0.8,11.4,2.5c3.3,1.7,5.8,4.1,7.7,7.3c1.8,3.2,2.8,7.1,2.8,11.6s-0.9,8.4-2.8,11.6
			c-1.8,3.2-4.4,5.7-7.7,7.3c-3.3,1.7-7.1,2.5-11.4,2.5c-4.2,0-8-0.8-11.3-2.5s-5.9-4.1-7.7-7.3c-1.8-3.2-2.8-7.1-2.8-11.6
			s0.9-8.4,2.8-11.6c1.8-3.2,4.4-5.7,7.7-7.3C116,31.2,119.7,30.4,124,30.4z M124,40.4c-1.6,0-3,0.4-4.1,1.2c-1.2,0.8-2,2-2.6,3.7
			s-0.9,3.9-0.9,6.6s0.3,4.9,0.9,6.5c0.6,1.7,1.5,2.9,2.6,3.7c1.2,0.8,2.5,1.2,4.1,1.2s3-0.4,4.2-1.2s2-2,2.6-3.7s0.9-3.9,0.9-6.5
			s-0.3-4.9-0.9-6.6c-0.6-1.7-1.5-2.9-2.6-3.7C127,40.7,125.6,40.4,124,40.4z"/>
	</g>
	<g>
		<path class="st0" d="M194,68.9h7.8c4.3,0,6.4,1.5,6.4,4.4c0,2.1-0.7,3.7-2.2,4.9c-1.5,1.2-3.6,1.7-6.3,1.7h-8.4
			c-3.4,0-6-0.7-7.7-2c-1.8-1.3-2.6-3.2-2.6-5.7c0-1.8,0.6-4.2,1.9-7.4l9.3-22.9c1.9-4.6,2.8-7.8,2.8-9.5c0-1.4-0.6-2.6-1.9-3.7
			c-1.3-1.1-2.7-1.6-4.4-1.6c-3.1,0-5.9,1.3-8.4,4s-3.8,5.7-3.8,9c0,1.9,0.4,3.4,1.3,4.4c0.8,1.1,2.4,2,4.7,2.9c2,0.8,3,2.2,3,4.1
			c0,1.8-0.7,3.3-2,4.4s-3,1.7-5,1.7c-3.9,0-7.2-1.6-9.9-4.9s-4.1-7.2-4.1-11.8c0-6.7,2.5-12.6,7.6-17.6s11-7.6,17.7-7.6
			c5.1,0,9.3,1.5,12.7,4.4c3.4,3,5.1,6.7,5.1,11.1c0,3.2-0.8,6.7-2.4,10.7L194,68.9z"/>
		<path class="st0" d="M247.5,69.9h5.6c3.9,0,5.9,1.4,5.9,4.1c0,1.9-0.7,3.4-2.1,4.4c-1.4,1.1-3.3,1.6-5.7,1.6h-9.7
			c-1.9,0-3.5-0.6-4.7-1.7c-1.3-1.1-1.9-2.6-1.9-4.3c0-1,0.4-2.6,1.3-4.7l4.1-10.1c0.4-1,0.7-1.9,0.7-2.5c0-0.7-0.3-1.4-0.9-1.9
			c-0.6-0.5-1.4-0.8-2.4-0.8c-3.2,0-5.7,2.4-7.7,7.2l-5.5,13.4c-1.6,4.1-4.1,6.1-7.3,6.1c-1.3,0-2.5-0.4-3.4-1.2
			c-0.9-0.8-1.4-1.8-1.4-3c0-0.9,0.2-1.9,0.7-3.1l0.5-1.3L223,49c1.2-3,3.3-4.5,6.2-4.5c2.4,0,4.1,1.1,5.1,3.1
			c3.3-2.5,6.5-3.8,9.4-3.8s5.3,0.8,7.2,2.5s2.8,3.8,2.8,6.3c0,1.4-0.3,3-1,4.7L247.5,69.9z"/>
		<path class="st0" d="M283.8,44.5h1.4c3.9,0,5.9,1.4,5.9,4.1c0,1.9-0.7,3.4-2.1,4.4c-1.4,1.1-3.3,1.6-5.7,1.6h-3.4l-6.2,15.2h5.2
			c3.9,0,5.9,1.4,5.9,4.1c0,1.9-0.7,3.4-2.1,4.4c-1.4,1.1-3.3,1.6-5.8,1.6h-8.3c-2.3,0-4.2-0.5-5.6-1.6s-2.1-2.5-2.1-4.4
			c0-1.1,0.3-2.4,0.8-3.8l0.9-2l5.5-13.5h-0.7c-3.5,0-5.2-1.3-5.2-4c0-1.9,0.7-3.4,2.1-4.5s3.3-1.6,5.8-1.6h2.1l2.5-6.1l0.5-1.3
			c1.5-3.4,3.7-5.1,6.9-5.1c1.3,0,2.4,0.4,3.3,1.3c0.9,0.8,1.4,1.9,1.4,3.1c0,1.2-0.4,2.7-1.2,4.4L283.8,44.5z"/>
		<path class="st0" d="M300.3,66.4c0,2.3,1.7,3.5,5.2,3.5h13.8c3.9,0,5.8,1.4,5.8,4.1c0,1.9-0.7,3.4-2.1,4.4
			c-1.4,1.1-3.3,1.6-5.8,1.6h-13.1c-4.9,0-8.6-1.2-11.1-3.6s-3.8-5.9-3.8-10.6c0-6,2-11.1,6-15.4s8.8-6.5,14.4-6.5
			c4,0,7.3,1.1,9.8,3.2c2.5,2.1,3.7,4.9,3.7,8.4c0,4.2-1.7,7.3-5.1,9.3c-1.9,1.1-4.7,1.7-8.4,1.7L300.3,66.4L300.3,66.4z M302.5,58
			h5.1c3.3,0,4.9-0.7,4.8-2.2c-0.1-1.6-1.2-2.5-3.2-2.5C306.4,53.3,304.1,54.9,302.5,58z"/>
		<path class="st0" d="M338.4,54.7l-1.6,3.9c-1.4,3.5-3.3,5.2-5.6,5.2c-1.4,0-2.5-0.4-3.5-1.3s-1.4-1.9-1.4-3.1c0-0.7,0.3-1.9,1-3.6
			l5.2-12.9c1.3-3.1,3.1-4.7,5.4-4.7s3.7,1.1,4.2,3.2l0.4,1.4c0.2,0.7,0.5,1.2,0.8,1.4c0.4,0.2,1.3,0.3,2.7,0.3h10.8
			c4,0,6.1,1.4,6.1,4.3c0,3.9-2.6,5.9-7.7,5.9l-0.5,0.5c-4.9,4.7-7.4,8.3-7.4,10.9c0,2.6,1.4,3.8,4.3,3.8h5.8c3.9,0,5.9,1.4,5.9,4.1
			c0,1.9-0.7,3.4-2.1,4.4c-1.4,1.1-3.3,1.6-5.8,1.6h-9.1c-3.1,0-5.6-1.1-7.6-3.2s-2.9-4.9-2.9-8.3c0-2.2,0.5-4.3,1.6-6.3
			c1-2,2.9-4.5,5.6-7.5L338.4,54.7L338.4,54.7z"/>
		<path class="st0" d="M376.7,66.4c0,2.3,1.7,3.5,5.2,3.5h13.8c3.9,0,5.8,1.4,5.8,4.1c0,1.9-0.7,3.4-2.1,4.4
			c-1.4,1.1-3.3,1.6-5.8,1.6h-13.1c-4.9,0-8.6-1.2-11.1-3.6s-3.8-5.9-3.8-10.6c0-6,2-11.1,6-15.4s8.8-6.5,14.4-6.5
			c4,0,7.3,1.1,9.8,3.2c2.5,2.1,3.7,4.9,3.7,8.4c0,4.2-1.7,7.3-5.1,9.3c-1.9,1.1-4.7,1.7-8.4,1.7L376.7,66.4L376.7,66.4z M378.9,58
			h5.1c3.3,0,4.9-0.7,4.8-2.2c-0.1-1.6-1.2-2.5-3.2-2.5C382.8,53.3,380.6,54.9,378.9,58z"/>
		<path class="st0" d="M418.7,57.2l-0.9,2.1c-1.4,3.1-3.3,4.6-5.8,4.6c-1.3,0-2.4-0.4-3.4-1.3c-1-0.9-1.5-1.9-1.5-3s0.4-2.5,1.3-4.3
			l6.2-12.5c1.5-3,3.4-4.5,5.7-4.5c1.2,0,2.2,0.4,3.1,1.2s1.3,1.7,1.3,2.8c0,0.3-0.1,0.9-0.3,1.8c-0.1,0.7-0.2,1.3-0.2,1.8
			c0,1.9,0.7,3.9,2.2,6l2.6,3.7c2.7,3.7,4,7.4,4,10.8c0,3.9-1.5,7.1-4.4,9.8c-2.9,2.6-6.5,3.9-10.8,3.9h-9.7c-3.9,0-5.9-1.4-5.9-4.1
			c0-1.9,0.7-3.4,2.1-4.4s3.3-1.6,5.7-1.6h5.4c4.3,0,6.4-1.6,6.4-4.7c0-1.1-0.4-2.5-1.2-4L418.7,57.2z"/>
		<path class="st0" d="M459.6,44.5h1.4c3.9,0,5.9,1.4,5.9,4.1c0,1.9-0.7,3.4-2.1,4.4c-1.4,1.1-3.3,1.6-5.7,1.6h-3.4l-6.2,15.2h5.2
			c3.9,0,5.9,1.4,5.9,4.1c0,1.9-0.7,3.4-2.1,4.4c-1.4,1.1-3.3,1.6-5.8,1.6h-8.3c-2.3,0-4.2-0.5-5.6-1.6s-2.1-2.5-2.1-4.4
			c0-1.1,0.3-2.4,0.8-3.8l0.9-2l5.5-13.5h-0.7c-3.5,0-5.2-1.3-5.2-4c0-1.9,0.7-3.4,2.1-4.5s3.3-1.6,5.8-1.6h2.1l2.5-6.1l0.5-1.3
			c1.5-3.4,3.7-5.1,6.9-5.1c1.3,0,2.4,0.4,3.3,1.3c0.9,0.8,1.4,1.9,1.4,3.1c0,1.2-0.4,2.7-1.2,4.4L459.6,44.5z"/>
	</g>
</g>
</svg>
